<?xml version="1.0" standalone="no"?>
<!DOCTYPE svg PUBLIC "-//W3C//DTD SVG 20010904//EN"
 "http://www.w3.org/TR/2001/REC-SVG-20010904/DTD/svg10.dtd">
<svg version="1.0" xmlns="http://www.w3.org/2000/svg"
 width="128.000000pt" height="128.000000pt" viewBox="0 0 128.000000 128.000000"
 preserveAspectRatio="xMidYMid meet">

<g transform="translate(0.000000,128.000000) scale(0.100000,-0.100000)"
fill="#000000" stroke="none">
<path d="M501 1265 c-110 -24 -226 -89 -311 -175 -250 -250 -252 -649 -5 -895
122 -121 256 -183 419 -192 292 -16 560 170 649 452 31 99 31 271 0 370 -101
318 -428 510 -752 440z m177 -308 c7 -8 13 -67 14 -138 l3 -124 124 -3 c71 -1
130 -7 138 -14 7 -6 13 -23 13 -38 0 -15 -6 -32 -13 -38 -8 -7 -67 -13 -138
-14 l-124 -3 -3 -124 c-1 -71 -7 -130 -14 -138 -14 -17 -62 -17 -76 0 -7 8
-13 67 -14 138 l-3 124 -124 3 c-71 1 -130 7 -138 14 -17 14 -17 62 0 76 8 7
67 13 138 14 l124 3 3 124 c1 71 7 130 14 138 6 7 23 13 38 13 15 0 32 -6 38
-13z"/>
</g>
</svg>
